<svg xmlns="http://www.w3.org/2000/svg" viewBox="0 0 38 36" class="design-iconfont">
  <path d="M14.5809697,27.5856529 L16.852906,27.5856529 L18.7709001,18.0729078 L19.2995587,15.4145843 L24.4006996,15.4145065 L18.3390068,10.0602833 L17.5138847,13.8355277 L16.600134,13.8349246 L16.6004456,13.8409697 L10.5294235,13.8409697 L11.5919236,15.4145065 L17.1726408,15.4145065 L16.4493632,18.7261381 L10.287899,18.7261381 C10.0015423,18.7261381 9.73410322,18.5838667 9.57420992,18.3464886 L5.13736484,11.7685762 C4.78103858,11.240695 5.15939229,10.5290791 5.79611493,10.5290791 L14.8512603,10.5288015 L15.8947382,5.73098396 C16.0421925,5.0522796 16.8561712,4.77084664 17.3915676,5.2132095 L31.8958866,17.2013985 C32.5183562,17.7158041 32.1545147,18.7262158 31.3475329,18.7262158 L21.8585774,18.7262158 L19.7112905,29.998824 C19.6161838,30.4987173 19.1790038,30.8602265 18.6700404,30.8602265 L12.3447956,30.8602265 C11.4206797,30.8602265 10.7297954,30.0104856 10.918454,29.1058056 L12.7555426,20.2945697 L16.1016406,20.2945697 L14.5809697,27.5856529 Z" fill="#0052D9" fill-rule="nonzero"/>
</svg>
