<?xml version="1.0" encoding="UTF-8"?>
<svg width="38px" height="36px" viewBox="0 0 38 36" version="1.1" xmlns="http://www.w3.org/2000/svg" xmlns:xlink="http://www.w3.org/1999/xlink">
    <title>路径</title>
    <g id="路径" stroke="none" stroke-width="1" fill="none" fill-rule="evenodd">
        <rect id="矩形" opacity="0" x="0" y="0" width="38" height="36"></rect>
        <path d="M17.3647535,27.4505178 L19.6366898,27.4505178 L21.5546839,17.9377727 L22.0833425,15.2794492 L27.1844834,15.2793714 L21.1227906,9.92514817 L20.2976685,13.7003926 L19.3839178,13.6997895 L19.3842294,13.7058346 L13.3132073,13.7058346 L14.3757074,15.2793714 L19.9564246,15.2793714 L19.233147,18.591003 L13.0716828,18.591003 C12.7853261,18.591003 12.517887,18.4487316 12.3579937,18.2113535 L7.92114862,11.6334411 C7.56482236,11.1055599 7.94317607,10.393944 8.57989871,10.393944 L17.6350441,10.3936664 L18.678522,5.59584883 C18.8259763,4.91714447 19.639955,4.63571151 20.1753514,5.07807437 L34.6796704,17.0662634 C35.30214,17.580669 34.9382985,18.5910807 34.1313167,18.5910807 L24.6423612,18.5910807 L22.4950743,29.8636889 C22.3999676,30.3635822 21.9627876,30.7250914 21.4538242,30.7250914 L15.1285794,30.7250914 C14.2044635,30.7250914 13.5135792,29.8753505 13.7022378,28.9706705 L15.5393264,20.1594346 L18.8854244,20.1594346 L17.3647535,27.4505178 Z" fill="#0052D9"></path>
    </g>
</svg>